<svg width="84" height="69" viewBox="0 0 84 69" fill="none" xmlns="http://www.w3.org/2000/svg">
<path d="M23.3272 47.3548L19.0251 44.0846C18.4793 43.6678 17.7837 43.4968 17.1094 43.593L10.0676 44.6724C9.54325 44.7579 9.37202 45.4312 9.8001 45.7411L9.8108 45.7518C9.97133 45.8693 10.1747 45.9014 10.3673 45.8266C12.5077 45.0892 15.2366 44.8754 18.3937 46.051C19.1642 46.3396 20.0096 46.8098 20.9193 47.4083C21.5828 47.8464 22.3962 48.0174 23.1881 47.8999C23.4663 47.8785 23.552 47.5258 23.3272 47.3548Z" fill="#C5E3C1"/>
<path d="M15.9857 41.7775L12.3685 39.0309C11.8227 38.6141 11.1271 38.4431 10.4528 38.5393L5.44438 39.3087C4.82367 39.4049 4.51332 40.1103 4.86648 40.6233C5.5621 41.6278 6.33263 42.579 7.17808 43.4553C7.61686 43.9149 8.25897 44.1286 8.87967 44.0324L15.6753 42.9958C16.2639 42.8996 16.4566 42.1408 15.9857 41.7775Z" fill="#C5E3C1"/>
<path d="M23.3379 38.9559C18.9074 32.5982 11.5017 29.1041 3.55024 29.6277C2.85462 29.6704 2.58708 30.5573 3.14357 30.9847L32.702 53.4343C32.9803 53.648 33.3442 53.3061 33.1408 53.0176L23.3379 38.9559Z" fill="#EBA920"/>
<path d="M5.10195 38.5178L8.61216 37.9835C9.35058 37.866 9.59672 36.9257 8.99742 36.4662L2.59772 31.6045C2.04123 31.1877 1.25999 31.6686 1.39912 32.3524V32.3631C1.75228 34.1475 2.30877 35.8465 3.0472 37.4386C3.41106 38.2186 4.25651 38.646 5.10195 38.5178Z" fill="#C5E3C1"/>
<path d="M56.8667 26.1335L47.8986 29.8947C47.0852 30.2367 46.4431 30.8991 46.1221 31.7219L43.7356 37.8338C43.5429 38.3254 44.0352 38.7955 44.5168 38.5925L52.0616 35.4297C52.4576 35.2587 52.8107 35.0023 53.089 34.6603C55.0367 32.2562 56.535 29.6062 57.573 26.8067C57.7336 26.3793 57.2948 25.9626 56.8667 26.1335Z" fill="#C5E3C1"/>
<path d="M65.8564 24.6694L66.948 24.7336C67.0657 24.7442 67.1727 24.7977 67.2476 24.8938C67.3225 24.99 67.3546 25.1075 67.3332 25.2251L67.1513 26.3043C67.1085 26.5928 67.4617 26.7637 67.6543 26.55L68.382 25.738C68.4569 25.6525 68.5746 25.5991 68.6924 25.5991C68.8101 25.5991 68.9171 25.6525 69.0027 25.738L69.7304 26.55C69.9231 26.7637 70.2869 26.5928 70.2334 26.3043L70.0515 25.2251C70.0301 25.1075 70.0622 24.99 70.1371 24.8938C70.212 24.7977 70.319 24.7442 70.4368 24.7336L71.5283 24.6694C71.8173 24.6481 71.9029 24.2634 71.6568 24.1245L70.7043 23.5902C70.5973 23.5368 70.5224 23.43 70.501 23.3231C70.4796 23.2056 70.501 23.088 70.5652 22.9919L71.1966 22.0943C71.3678 21.8592 71.1217 21.5494 70.8434 21.6562L69.8267 22.0729C69.7197 22.1157 69.5913 22.1157 69.4843 22.0622C69.3773 22.0088 69.3024 21.9127 69.2703 21.8058L68.9599 20.7587C68.8743 20.4808 68.4783 20.4808 68.4034 20.7587L68.0931 21.8058C68.061 21.9233 67.986 22.0088 67.879 22.0622C67.772 22.1157 67.6543 22.1157 67.5366 22.0729L66.5199 21.6562C66.2524 21.5494 66.0062 21.8592 66.1667 22.0943L66.7981 22.9919C66.8624 23.088 66.8945 23.2056 66.8624 23.3231C66.841 23.4406 66.766 23.5368 66.659 23.5902L65.7066 24.1245C65.4711 24.2741 65.5674 24.6588 65.8564 24.6694Z" fill="#EBA920"/>
<path d="M58.5148 17.2648L51.7084 20.1178C50.8951 20.4597 50.253 21.1222 49.9319 21.945L47.5561 28.0569C47.3635 28.5484 47.8558 29.0186 48.3374 28.8156L57.0594 25.1612C57.8406 24.83 58.4185 24.1461 58.6111 23.3233C59.0178 21.4962 59.2318 19.637 59.2532 17.7564C59.2532 17.3824 58.8573 17.1259 58.5148 17.2648Z" fill="#C5E3C1"/>
<path d="M52.1365 19.0384L57.4553 16.8052C58.5469 16.3457 59.189 15.2238 59.0499 14.0591C58.7824 11.9007 58.2687 9.75294 57.4767 7.64795L57.1985 6.89999C56.9523 6.24819 56.032 6.2375 55.7859 6.8893L51.3446 18.2797C51.1627 18.7713 51.655 19.2414 52.1365 19.0384Z" fill="#C5E3C1"/>
<path d="M25.3713 48.9145C25.0288 48.658 24.5901 48.5405 24.1727 48.6046L23.6162 48.6901C23.3379 48.7328 23.2523 49.0855 23.4771 49.2457C25.382 50.6882 27.4475 52.3551 29.5557 53.7763L31.878 54.599C32.2098 54.7166 32.4452 54.2785 32.167 54.0648L25.3713 48.9145Z" fill="#C5E3C1"/>
<path d="M80.7319 45.4628L71.1002 47.9418C70.5865 48.07 70.4902 48.7538 70.9397 49.021L76.3441 52.3334C78.2598 50.8054 79.9613 48.9782 81.3847 46.8626L81.5559 46.6168C81.9305 46.0398 81.4061 45.2918 80.7319 45.4628Z" fill="#C5E3C1"/>
<path d="M74.5996 52.2375L69.8052 49.299C69.056 48.8396 68.1464 48.7007 67.2795 48.9251L62.239 50.218C61.7253 50.3462 61.629 51.0301 62.0784 51.2972L68.8206 55.4217C69.452 55.8064 70.2332 55.8598 70.9075 55.5713C72.2024 55.0156 73.4438 54.3532 74.621 53.5731C75.1133 53.2526 75.1026 52.5367 74.5996 52.2375Z" fill="#C5E3C1"/>
<path d="M53.9344 5.70346L53.2281 6.07744C44.3455 10.7469 38.695 19.3592 38.1278 29.1041L36.8007 51.714C36.7793 52.0666 37.2716 52.1734 37.4 51.8422L54.9939 6.64375C55.24 5.99196 54.5551 5.37221 53.9344 5.70346Z" fill="#EBA920"/>
<path d="M67.2261 55.4109L60.9548 51.5749C60.2057 51.1155 59.296 50.9766 58.4399 51.2009L53.3886 52.4939C52.8749 52.6221 52.7786 53.3059 53.2281 53.5731L59.0392 57.1312C59.3495 57.3236 59.7134 57.4304 60.0773 57.4518C62.4424 57.5907 64.7647 57.377 66.9906 56.8641C67.6863 56.7038 67.8254 55.7849 67.2261 55.4109Z" fill="#C5E3C1"/>
<path d="M38.7058 52.4082L50.2424 38.1755C50.5849 37.7481 50.1354 37.139 49.6217 37.3527L44.0781 39.6714C43.2648 40.0134 42.6227 40.6758 42.3016 41.4986L38.1707 52.0983C38.053 52.4296 38.4811 52.6753 38.7058 52.4082Z" fill="#C5E3C1"/>
<path d="M80.6249 43.2725L80.368 43.1443C72.5664 39.2549 63.6303 39.6395 56.4494 44.1701L40.2682 54.3958C39.9685 54.5881 40.1719 55.0369 40.5143 54.9514L80.475 44.6723C81.1493 44.5013 81.2456 43.5824 80.6249 43.2725Z" fill="#EBA920"/>
<path d="M55.0688 55.6784L52.0937 53.8616C51.3446 53.4021 50.4349 53.2632 49.5788 53.4876L40.7498 55.7532C40.4073 55.8387 40.4608 56.341 40.814 56.3624L54.6086 57.1532C55.4327 57.196 55.7751 56.1059 55.0688 55.6784Z" fill="#C5E3C1"/>
<path d="M83.7926 43.9244L80.7319 42.3964C76.4618 40.2593 71.8494 39.3725 67.3546 39.7037C66.9265 39.7357 66.584 39.3511 66.6697 38.9344C67.2262 36.3165 67.5258 33.4849 67.5258 30.4396C67.5258 29.6917 67.4937 28.9651 67.4402 28.2491C67.4295 28.0996 67.483 27.9606 67.5793 27.8431L68.2749 27.0738C68.489 26.828 68.8742 26.828 69.0883 27.0738L70.7257 28.8903C70.8113 28.9757 70.9183 29.0292 71.036 29.0292C71.1002 29.0292 71.1537 29.0185 71.2179 28.9864C71.3892 28.9116 71.4748 28.73 71.4427 28.5483L71.0467 26.1442C70.9932 25.8236 71.2286 25.5244 71.5604 25.5031L74.0004 25.3535C74.1824 25.3428 74.3429 25.2146 74.375 25.0329C74.4178 24.8513 74.3322 24.6696 74.1717 24.5841L72.042 23.3981C71.753 23.2378 71.6674 22.8638 71.8601 22.5967L73.262 20.6092C73.369 20.4596 73.3583 20.2566 73.2513 20.1177C73.1336 19.9788 72.9409 19.9254 72.7697 19.9895L70.5116 20.9191C70.212 21.0473 69.8695 20.8764 69.7732 20.5665L69.0883 18.2264C69.0348 18.0448 68.8742 17.9272 68.6923 17.9272C68.5104 17.9272 68.3498 18.0448 68.2963 18.2264L67.6114 20.5665C67.5151 20.8764 67.1726 21.0473 66.873 20.9191L66.1239 20.6092C65.9847 20.5558 65.867 20.4383 65.8242 20.2887C64.4116 16.3993 62.1535 13.0975 59.2105 10.4476C58.9536 9.41113 58.6326 8.38535 58.258 7.37025L56.9096 3.73728C56.8668 3.63043 56.7812 3.53426 56.6741 3.49152C56.5671 3.44878 56.4387 3.45946 56.3317 3.51289L52.8536 5.34006C52.5539 5.50034 52.2543 5.66062 51.9546 5.83158C47.6953 3.98304 42.7403 3 37.3038 3C32.595 3 16.6706 3.20302 14.145 3.14959L7.42424 3.02137C6.94266 3.01069 6.72862 3.61974 7.10319 3.90824L11.9939 7.77629C13.5243 8.98372 14.4125 10.8216 14.4233 12.7663C14.434 17.0083 14.434 24.7551 14.4447 30.6426C11.095 29.2001 7.37074 28.5377 3.50737 28.7834L0.382431 28.9864C0.264711 28.9971 0.157692 29.0505 0.0827795 29.1467C0.00786655 29.2429 -0.0135371 29.3604 0.00786655 29.4779L0.60717 32.5125C1.69876 38.1757 4.78089 43.0161 9.19005 46.3285C7.7239 47.0337 6.62161 47.942 5.94739 48.69C3.1114 51.8314 2.10543 59.5354 8.10916 61.2344C13.3638 62.7303 14.9904 57.9006 16.9275 56.394C18.9394 54.834 21.0263 52.2481 27.7685 55.8277C34.5106 59.4072 38.1064 60.0804 41.1886 60.3048C44.2707 60.5185 45.8332 60.0056 45.8332 60.0056C48.1876 59.5354 50.3815 58.8088 52.4148 57.8472L60.0131 58.2853C60.5054 58.3173 60.9977 58.328 61.4793 58.328C69.7518 58.328 77.3608 54.289 82.0482 47.3222L83.9317 44.5227C83.9959 44.4266 84.0174 44.2983 83.9853 44.1808C83.9853 44.0739 83.8996 43.9778 83.7926 43.9244ZM65.7279 24.1247L66.6804 23.5904C66.7874 23.537 66.8623 23.4301 66.8837 23.3233C66.9051 23.2057 66.8837 23.0882 66.8195 22.992L66.1881 22.0945C66.0168 21.8594 66.263 21.5495 66.5412 21.6564L67.5579 22.0731C67.6649 22.1158 67.7934 22.1158 67.9004 22.0624C68.0074 22.009 68.0823 21.9128 68.1144 21.806L68.4248 20.7588C68.5104 20.481 68.9063 20.481 68.9813 20.7588L69.2916 21.806C69.3237 21.9235 69.3986 22.009 69.5056 22.0624C69.6127 22.1158 69.7304 22.1158 69.8481 22.0731L70.8648 21.6564C71.1323 21.5495 71.3785 21.8594 71.2179 22.0945L70.5865 22.992C70.5223 23.0882 70.4902 23.2057 70.5223 23.3233C70.5437 23.4408 70.6186 23.537 70.7257 23.5904L71.6781 24.1247C71.935 24.2636 71.8494 24.6482 71.5497 24.6696L70.4581 24.7337C70.3404 24.7444 70.2334 24.7978 70.1585 24.894C70.0835 24.9902 70.0514 25.1077 70.0729 25.2252L70.2548 26.3044C70.2976 26.5929 69.9444 26.7639 69.7518 26.5502L69.0241 25.7381C68.9492 25.6526 68.8314 25.5992 68.7137 25.5992C68.596 25.5992 68.489 25.6526 68.4034 25.7381L67.6756 26.5502C67.483 26.7639 67.1191 26.5929 67.1726 26.3044L67.3546 25.2252C67.376 25.1077 67.3439 24.9902 67.269 24.894C67.1941 24.7978 67.087 24.7444 66.9693 24.7337L65.8777 24.6696C65.5674 24.6589 65.4711 24.2743 65.7279 24.1247ZM59.2426 17.7563C59.2212 19.6369 59.0071 21.4961 58.6005 23.3233C58.4185 24.146 57.8299 24.8406 57.0487 25.1611L48.3267 28.8155C47.8451 29.0185 47.3528 28.5376 47.5455 28.0568L49.9213 21.9449C50.2423 21.1221 50.8844 20.4596 51.6978 20.1177L58.5042 17.2648C58.8573 17.1258 59.2533 17.3823 59.2426 17.7563ZM57.5731 26.8173C56.5457 29.6062 55.0475 32.2668 53.089 34.671C52.8215 35.0022 52.4683 35.2693 52.0616 35.4403L44.5168 38.6031C44.0353 38.8061 43.543 38.3253 43.7356 37.8445L46.1114 31.7325C46.4325 30.9098 47.0746 30.2473 47.8879 29.9054L56.8561 26.1442C57.2948 25.9625 57.7336 26.3792 57.5731 26.8173ZM57.1985 6.9001L57.4768 7.64807C58.258 9.75305 58.7824 11.9008 59.0499 14.0592C59.1891 15.2239 58.547 16.3458 57.4554 16.8053L52.1366 19.0385C51.655 19.2415 51.1627 18.7607 51.3553 18.2798L55.7859 6.88942C56.032 6.2483 56.9524 6.2483 57.1985 6.9001ZM3.04719 37.4384C2.30876 35.8463 1.75227 34.1474 1.39911 32.363V32.3523C1.27068 31.6684 2.04122 31.1876 2.59771 31.6043L8.99742 36.4661C9.59672 36.9255 9.35058 37.8658 8.61215 37.9834L5.10194 38.5176C4.2565 38.6459 3.41105 38.2184 3.04719 37.4384ZM8.8797 44.0205C8.24829 44.1167 7.61688 43.903 7.1781 43.4435C6.33266 42.5673 5.55142 41.627 4.8665 40.6119C4.51334 40.099 4.8344 39.3938 5.4444 39.2977L10.4529 38.5283C11.1271 38.4215 11.8227 38.6031 12.3685 39.0198L15.9857 41.7659C16.4673 42.1292 16.2747 42.8879 15.6754 42.9734L8.8797 44.0205ZM20.9193 47.4184C20.0203 46.8307 19.1749 46.3499 18.3936 46.0614C15.2366 44.886 12.5076 45.089 10.3673 45.837C10.1746 45.9011 9.97128 45.8797 9.81076 45.7622L9.80005 45.7515C9.37198 45.431 9.54321 44.7578 10.0676 44.683L17.1094 43.6038C17.7836 43.4969 18.4792 43.6786 19.025 44.0953L23.3272 47.365C23.5519 47.536 23.4556 47.8779 23.1881 47.9206C22.3961 48.0382 21.5935 47.8565 20.9193 47.4184ZM31.878 54.5989L29.5557 53.7761C27.4474 52.355 25.3819 50.6881 23.477 49.2456C23.2523 49.0746 23.3486 48.7327 23.6161 48.69L24.1726 48.6045C24.6007 48.5404 25.0288 48.6472 25.3712 48.9143L32.1562 54.0753C32.4452 54.2783 32.2097 54.7164 31.878 54.5989ZM32.702 53.4342L3.14351 30.9846C2.58701 30.5572 2.85456 29.681 3.55018 29.6275C11.5016 29.104 18.9073 32.598 23.3379 38.9557L33.1408 53.0068C33.3334 53.2953 32.9803 53.6479 32.702 53.4342ZM35.4738 54.9194L31.8887 49.7692C31.375 49.0319 31.0967 48.1557 31.0967 47.2475V18.0234C31.0967 17.6494 30.9255 17.2968 30.6365 17.0724L29.1062 15.865C24.9004 12.5312 27.2013 5.72473 32.5843 5.69267C37.5499 5.66062 41.0708 8.27849 43.2647 10.6292C43.9282 11.3345 43.9603 12.4137 43.361 13.183C39.7973 17.6815 37.657 23.163 37.3038 29.0612L35.7948 54.8446C35.7734 54.9942 35.5701 55.0477 35.4738 54.9194ZM36.8008 51.7139L38.1278 29.104C38.695 19.3591 44.3456 10.7468 53.2281 6.07734L53.9345 5.70336C54.5552 5.3828 55.2401 5.99186 54.9939 6.64366L37.4001 51.8421C37.2717 52.1626 36.7794 52.0558 36.8008 51.7139ZM38.1813 52.0985L42.3123 41.4988C42.6333 40.676 43.2754 40.0136 44.0888 39.6716L49.6323 37.3529C50.146 37.1392 50.5955 37.7483 50.253 38.1757L38.7057 52.4084C38.481 52.6755 38.0529 52.4298 38.1813 52.0985ZM38.2349 54.2997L48.3802 41.7873C48.6692 41.4347 49.2471 41.7232 49.1186 42.1613C48.5621 44.1594 47.8237 46.1469 46.8605 48.0809C46.3148 49.1815 45.4907 50.1111 44.4526 50.7629L38.4596 54.5454C38.2991 54.6523 38.1171 54.4493 38.2349 54.2997ZM40.2682 54.3959L56.4494 44.1701C63.6196 39.6396 72.5664 39.2549 80.368 43.1443L80.6249 43.2726C81.2456 43.5824 81.1493 44.5014 80.475 44.683L40.5144 54.9622C40.1719 55.037 39.9686 54.5775 40.2682 54.3959ZM54.6087 57.142L40.814 56.3512C40.4608 56.3299 40.418 55.8384 40.7498 55.7422L49.5788 53.4769C50.435 53.2525 51.3446 53.3914 52.0937 53.8509L55.0689 55.6674C55.7752 56.1055 55.4327 57.1954 54.6087 57.142ZM66.9907 56.8641C64.7647 57.3877 62.4424 57.5907 60.0773 57.4518C59.7135 57.4305 59.3496 57.3236 59.0392 57.1313L53.2281 53.5731C52.7787 53.2953 52.8857 52.6221 53.3887 52.4939L58.4292 51.201C59.2854 50.9766 60.195 51.1155 60.9442 51.575L67.2155 55.4109C67.8255 55.7849 67.6863 56.7039 66.9907 56.8641ZM74.6318 53.5731C73.4546 54.3531 72.2132 55.0156 70.9183 55.5712C70.2441 55.8597 69.4628 55.8063 68.8314 55.4216L62.0893 51.2971C61.6398 51.0193 61.7468 50.3462 62.2498 50.2179L67.2904 48.925C68.1465 48.7006 69.0562 48.8395 69.816 49.299L74.6104 52.2374C75.1027 52.5366 75.1134 53.2525 74.6318 53.5731ZM81.5452 46.617L81.374 46.8628C79.9507 48.9785 78.2491 50.8056 76.3334 52.3336L70.929 49.0212C70.4795 48.7434 70.5865 48.0702 71.0895 47.942L80.7212 45.463C81.4061 45.2921 81.9305 46.04 81.5452 46.617Z" fill="#FFFBE7"/>
<path d="M6.72865 13.8032H7.22094C7.56339 13.8032 7.84164 14.0811 7.84164 14.4231V14.9147C7.84164 15.1391 8.02357 15.3315 8.25901 15.3315C8.48375 15.3315 8.67639 15.1498 8.67639 14.9147V14.4231C8.67639 14.0811 8.95463 13.8032 9.29709 13.8032H9.78938C10.0141 13.8032 10.2067 13.6216 10.2067 13.3864C10.2067 13.1513 10.0248 12.9697 9.78938 12.9697H9.29709C8.95463 12.9697 8.67639 12.6918 8.67639 12.3498V11.8582C8.67639 11.6338 8.49445 11.4414 8.25901 11.4414C8.03428 11.4414 7.84164 11.6231 7.84164 11.8582V12.3498C7.84164 12.6918 7.56339 12.9697 7.22094 12.9697H6.72865C6.50391 12.9697 6.31128 13.1513 6.31128 13.3864C6.31128 13.6216 6.50391 13.8032 6.72865 13.8032Z" fill="#FFFBE7"/>
<path d="M51.5052 63.6386H51.0129C50.6705 63.6386 50.3922 63.3607 50.3922 63.0188V62.5271C50.3922 62.3027 50.2103 62.1104 49.9749 62.1104C49.7501 62.1104 49.5575 62.292 49.5575 62.5271V63.0188C49.5575 63.3607 49.2792 63.6386 48.9368 63.6386H48.4445C48.2197 63.6386 48.0271 63.8203 48.0271 64.0554C48.0271 64.2905 48.209 64.4722 48.4445 64.4722H48.9368C49.2792 64.4722 49.5575 64.75 49.5575 65.092V65.5836C49.5575 65.8081 49.7394 66.0004 49.9749 66.0004C50.1996 66.0004 50.3922 65.8188 50.3922 65.5836V65.0813C50.3922 64.7394 50.6705 64.4615 51.0129 64.4615H51.5052C51.73 64.4615 51.9226 64.2798 51.9226 64.0447C51.9226 63.8096 51.73 63.6386 51.5052 63.6386Z" fill="#FFFBE7"/>
</svg>
